<svg xmlns="http://www.w3.org/2000/svg" viewBox="0 -7 62.566 12.755"><path d="M-250.009-6.669c17.273 5.148 36.703 11.127 36.703 35.541 0 21.26-16.606 33.931-43.013 33.966l-43.57.053-.046-20.68s31.324-.22 43.45-.22c9.797 0 15.612-4.317 15.612-11.624 0-9.632-10.63-12.787-22.922-16.441C-280.736 8.944-300 3.296-300-20.454c0-20.925 16.824-33.383 43.23-33.383h44.42l-.591 22.057s-37.068-1.13-46.202-1.13c-8.471 0-13.453 3.654-13.453 9.798 0 9.3 10.464 12.455 22.419 16.111zM-102.04 62.42h-29.398l-20.593-38.035h-16.775V62.42h-26.075V-53.838h47.5c27.902 0 43.847 12.456 43.847 38.035 0 19.596-8.304 31.887-23.418 37.201zm-25.909-77.227c0-12.79-7.473-17.605-20.926-17.605h-20.097V3.13h20.097c13.285 0 20.926-4.985 20.926-17.938M-84.112 62.585V-53.672h26.077V62.585ZM75.825-3.182v40.025C64.863 53.119 45.596 63.582 22.677 63.582c-35.873 0-62.945-25.575-62.945-59.623C-40.268-29.59-13.196-55 22.677-55c19.764 0 36.705 7.641 48.162 20.097l-22.42 13.285C41.61-28.095 32.478-32.08 23.01-32.08c-19.432 0-37.204 15.945-37.204 36.37 0 20.263 18.106 36.707 37.204 36.707 11.295 0 22.09-5.65 28.9-14.617V18.41H28.821V-2.85ZM161.012 41.992c13.124-3.485 27.735-17.105 32.886-22.917-1.995 27.9-20.595 45.007-49.66 45.007-31.056 0-50.322-19.098-50.322-49.992v-67.594h26.075V14.09c0 12.292 5.646 21.428 14.616 25.245 2.657 1.165 6.144 2.491 10.294 3.155.999.166 8.64 1.329 16.113-.664z" style="fill:#303e51;fill-rule:nonzero;stroke:none;stroke-width:2.3065;stroke-linecap:butt;stroke-linejoin:miter;stroke-miterlimit:4;stroke-dasharray:none;stroke-dashoffset:0" transform="translate(30.74 -.897)scale(.06038)"/><path d="M194.064-53.504v44.677c0 9.134-5.813 15.777-13.786 21.755-2.491 1.993-6.975 4.484-12.29 6.313.167-1.66.333-3.321.333-5.15v-67.595z" style="fill:#00c565;fill-rule:nonzero;stroke:none;stroke-width:2.3065;stroke-linecap:butt;stroke-linejoin:miter;stroke-miterlimit:4;stroke-dasharray:none;stroke-dashoffset:0" transform="translate(30.74 -.897)scale(.06038)"/><path d="M215.976 62.585V-53.672h26.077V62.585ZM311.971-53.672c34.877 0 58.295 23.418 58.295 58.129 0 34.212-24.414 58.128-59.293 58.128h-45.671V-53.672h46.83zm.83 94.668c18.268 0 31.058-14.946 31.058-36.373 0-21.591-13.286-36.703-32.384-36.703h-20.264v72.908h21.427zM475.22 41.662v21.256h-86.863V-53.339h85.036v21.257H414.27v73.578Zm-44.287-26.184V-5.506l36.812-.335v21.262z" style="fill:#303e51;fill-rule:nonzero;stroke:none;stroke-width:2.3065;stroke-linecap:butt;stroke-linejoin:miter;stroke-miterlimit:4;stroke-dasharray:none;stroke-dashoffset:0" transform="translate(30.74 -.897)scale(.06038)"/><path d="M3.316 2.9V1.39L5.209.766l1.635-5.427V2.9zM10.896 2.9V1.39L9.002.766 7.368-4.661V2.9z" style="display:inline;fill:#00c565;fill-opacity:1;fill-rule:evenodd;stroke:#000;stroke-width:.0229096;stroke-linecap:round;stroke-linejoin:round;stroke-dasharray:none;stroke-opacity:1;paint-order:stroke fill markers"/></svg>