<svg xmlns="http://www.w3.org/2000/svg" viewBox="0 -7 62.566 12.755"><path d="M15.644.22c1.043.31 2.217.672 2.217 2.146 0 1.283-1.003 2.048-2.598 2.05l-2.63.004-.003-1.249s1.891-.013 2.623-.013c.592 0 .943-.26.943-.702 0-.582-.642-.772-1.384-.993-1.023-.3-2.186-.642-2.186-2.076 0-1.263 1.016-2.015 2.61-2.015h2.682l-.035 1.332s-2.239-.069-2.79-.069c-.512 0-.812.22-.812.592 0 .561.631.752 1.353.973zM24.58 4.39h-1.775L21.56 2.095h-1.013V4.39h-1.574v-7.02h2.868c1.685 0 2.648.753 2.648 2.297 0 1.183-.502 1.926-1.414 2.246zM23.014-.272c0-.772-.45-1.063-1.263-1.063h-1.214V.811h1.214c.802 0 1.263-.3 1.263-1.083m2.647 4.673v-7.02h1.575v7.02Zm9.657-3.97v2.416c-.662.983-1.825 1.614-3.209 1.614-2.166 0-3.8-1.544-3.8-3.6 0-2.025 1.634-3.56 3.8-3.56 1.194 0 2.216.462 2.908 1.214l-1.353.802a2.25 2.25 0 0 0-1.535-.632c-1.173 0-2.246.963-2.246 2.196 0 1.224 1.093 2.217 2.246 2.217a2.22 2.22 0 0 0 1.745-.883v-.481H32.48V.45Zm5.144 2.727c.792-.21 1.675-1.033 1.986-1.384-.12 1.685-1.244 2.718-2.999 2.718-1.875 0-3.038-1.153-3.038-3.019v-4.081h1.574v4.081c0 .742.341 1.294.883 1.524.16.07.37.15.621.19.06.011.522.081.973-.04z" style="fill:#303e51;fill-rule:nonzero;stroke:none;stroke-width:.139266;stroke-linecap:butt;stroke-linejoin:miter;stroke-miterlimit:4;stroke-dasharray:none;stroke-dashoffset:0"/><path d="M42.458-2.608V.089c0 .552-.351.953-.833 1.314-.15.12-.421.27-.742.381.01-.1.02-.2.02-.31v-4.082Z" style="fill:#00c565;fill-rule:nonzero;stroke:none;stroke-width:.139266;stroke-linecap:butt;stroke-linejoin:miter;stroke-miterlimit:4;stroke-dasharray:none;stroke-dashoffset:0"/><path d="M43.78 4.401v-7.02h1.575v7.02zm5.797-7.02c2.106 0 3.52 1.415 3.52 3.51 0 2.066-1.474 3.51-3.58 3.51h-2.758v-7.02h2.828zm.05 5.717c1.103 0 1.875-.903 1.875-2.196 0-1.304-.802-2.217-1.955-2.217h-1.224v4.403h1.294zm9.807.04V4.42h-5.245v-7.02h5.134v1.284h-3.57v4.443ZM56.76 1.557V.29l2.222-.02v1.284Z" style="fill:#303e51;fill-rule:nonzero;stroke:none;stroke-width:.139266;stroke-linecap:butt;stroke-linejoin:miter;stroke-miterlimit:4;stroke-dasharray:none;stroke-dashoffset:0"/><path d="M3.316 4.42V2.91l1.893-.625 1.635-5.427V4.42zm7.58 0V2.91l-1.894-.625-1.634-5.427V4.42z" style="display:inline;fill:#00c565;fill-opacity:1;fill-rule:evenodd;stroke:#000;stroke-width:.0229096;stroke-linecap:round;stroke-linejoin:round;stroke-dasharray:none;stroke-opacity:1;paint-order:stroke fill markers"/><path d="M56.47-4.136a1 1 0 0 1-.05-.1.5.5 0 0 1-.037-.155.3.3 0 0 1 .034-.144c.022-.043.05-.082.073-.128a.7.7 0 0 0 .048-.15q.015-.079.026-.14a.2.2 0 0 1 .043-.102.3.3 0 0 1 .107-.076.6.6 0 0 1 .384-.05c.084.013.185.04.284.076s.196.078.291.118l.283.117c.095.038.192.077.328.122.135.045.308.096.472.149s.317.11.422.15a3 3 0 0 1 .472.226c.094.055.2.125.271.185.071.059.106.107.136.173a1.2 1.2 0 0 1 .095.438c0 .061-.01.113-.02.169-.01.055-.02.113-.036.165a.5.5 0 0 1-.063.13.2.2 0 0 1-.084.07.13.13 0 0 1-.095.006c-.03-.011-.053-.039-.07-.075-.016-.037-.025-.082-.035-.125a.3.3 0 0 0-.054-.121.6.6 0 0 0-.152-.126c-.07-.044-.16-.09-.324-.155a7 7 0 0 0-.669-.228c-.266-.077-.56-.145-.778-.2-.217-.054-.358-.096-.495-.136a8 8 0 0 0-.366-.099 1 1 0 0 0-.188-.027.2.2 0 0 0-.084.011.3.3 0 0 0-.068.031c-.018.012-.027.024-.04.027a.1.1 0 0 1-.041-.005c-.01-.003-.01-.003-.02-.02" style="display:inline;fill:#f7f7f7;fill-opacity:1;fill-rule:evenodd;stroke:#000;stroke-width:.064252;stroke-linecap:round;stroke-linejoin:round;paint-order:stroke fill markers" transform="matrix(1.43136 -.29153 .30284 1.36926 -25.462 19.767)"/><path d="M58.811-1.37c.022-.035.067-.104.13-.16a.7.7 0 0 1 .21-.128.3.3 0 0 1 .203-.015c.08.02.185.065.261.138a.54.54 0 0 1 .143.517.42.42 0 0 1-.119.208.7.7 0 0 1-.238.142.35.35 0 0 1-.238.007.596.596 0 0 1-.389-.386.38.38 0 0 1 .008-.27c.007-.019.007-.019.03-.053" style="fill:#f7f7f7;fill-opacity:1;fill-rule:evenodd;stroke:#000;stroke-width:.064252;stroke-linecap:round;stroke-linejoin:round;paint-order:stroke fill markers" transform="matrix(1.43136 -.29153 -.30284 -1.36926 -24.276 16.409)"/><path d="M54.932-1.68a14 14 0 0 1-.368-1.074c-.115-.413-.346-.867-1.19-2.35-.433-.76-.465-.805-.873-1.208a4 4 0 0 1-.248-.257c-.008-.036-.093-.04-.116-.006-.037.053.014.14.168.288l.256.247c.065.062.17.187.234.277.133.188.479.782.478.823 0 .019-.072 0-.23-.061-.45-.173-.923-.262-1.877-.354-.743-.071-.718-.068-1.254-.173-.516-.102-.78-.13-.994-.105-.088.01-.162.01-.168 0-.03-.05.372-.942.567-1.183.587-.724 1.117-.974 1.81-1.035 1.058-.093 1.202.445 1.998.695.542.297.678.554.963 1.207.238.545.28.678.426 1.335.094.425.158.671.22.853.124.355.158.575.146.926-.013.375-.003.494.068.821.065.297.07.36.03.369-.015.003-.035-.012-.046-.034" style="display:inline;fill:#d9132a;stroke-width:.0220219" transform="translate(5.787 1.564)"/><path d="M55.089-.025c-.774-.01-1.064-1.028-.421-1.481a.7.7 0 0 0 .118-.096c.004-.01-.06-.203-.143-.428a10 10 0 0 1-.224-.683c-.066-.244-.094-.313-.257-.638-.185-.37-.231-.429-.227-.297.008.26-.133.494-.32.532-.146.03-.224-.03-.324-.248-.112-.245-.221-.3-.799-.399-.575-.099-.925-.127-2.056-.168-.568-.02-1.156-.043-1.306-.05-.382-.019-.483.001-.59.116-.133.143-.218.138-.348-.02-.194-.236-.24-.434-.143-.624.108-.212.111-.229.086-.435-.038-.306-.003-.381.241-.516.135-.074.168-.123.342-.508.288-.635.449-.894.751-1.208.435-.452.862-.684 1.442-.784.64-.11 1.152.006 1.636.369.24.18.488.333.689.424.472.213.692.477 1.012 1.21.226.517.286.706.431 1.364.09.41.158.668.222.858.118.347.14.505.127.907-.01.3-.005.344.063.737.083.473.072.451.25.476.591.08.847.898.414 1.324a.94.94 0 0 1-.666.266m.463-.263c.231-.17.32-.382.272-.655-.111-.639-.972-.78-1.305-.215-.364.619.446 1.3 1.033.87m-.546-1.406a3 3 0 0 0-.058-.32c-.071-.327-.081-.446-.068-.82a2.2 2.2 0 0 0-.146-.927 8 8 0 0 1-.22-.853c-.146-.657-.188-.79-.426-1.335-.285-.653-.44-.83-.981-1.127-.16-.087-.433-.253-.606-.368-.614-.405-1.019-.494-1.656-.362-.622.13-1.119.473-1.546 1.07-.18.251-.58 1.053-.549 1.102.006.01.083.01.17 0 .215-.024.476.004.992.106.536.105.511.102 1.254.173.954.092 1.427.181 1.876.354.159.061.23.08.231.061 0-.04-.345-.635-.478-.823a2.4 2.4 0 0 0-.234-.277l-.256-.247c-.154-.147-.205-.235-.168-.288.023-.035.108-.03.116.006.002.009.114.124.248.257.408.403.44.447.872 1.207.845 1.484 1.076 1.938 1.191 2.35.074.264.314.964.368 1.076.01.022.031.037.046.034s.027-.025.028-.05M53.703-3.33c.095-.14.106-.297.046-.63-.046-.256-.048-.26-.164-.465-.116-.203-.12-.209-.251-.283-.458-.26-1.076-.4-2.207-.504-.689-.063-.983-.106-1.503-.216-.526-.112-.88-.086-1.177.086-.167.096-.207.157-.18.276.047.215.029.424-.045.522-.12.157-.104.335.043.51.098.117.118.12.187.031.096-.123.332-.144 1.081-.097.214.013.69.033 1.056.044 1.117.033 1.582.078 2.144.21.474.11.587.177.672.393.065.163.077.186.118.211.06.037.112.012.18-.088" style="display:inline;fill:#211617;stroke-width:.0220219" transform="translate(5.787 1.564)"/></svg>