<svg xmlns="http://www.w3.org/2000/svg" xml:space="preserve" viewBox="0 -7 62.566 12.755"><path d="M15.114.38c1.043.31 2.216.672 2.216 2.146 0 1.283-1.002 2.048-2.597 2.05l-2.63.004L12.1 3.33s1.89-.013 2.623-.013c.592 0 .943-.26.943-.702 0-.582-.642-.772-1.384-.993-1.023-.3-2.186-.642-2.186-2.076 0-1.263 1.016-2.015 2.61-2.015h2.682l-.036 1.332s-2.238-.069-2.79-.069c-.51 0-.812.22-.812.592 0 .561.632.752 1.354.973zm8.934 4.171h-1.775L21.03 2.255h-1.013V4.55h-1.574v-7.02h2.868c1.685 0 2.647.753 2.647 2.297 0 1.183-.501 1.926-1.414 2.246zM22.484-.112c0-.772-.451-1.063-1.263-1.063h-1.214V.971h1.214c.802 0 1.263-.3 1.263-1.083m2.647 4.673v-7.02h1.575v7.02Zm9.657-3.97v2.416c-.662.983-1.825 1.614-3.21 1.614-2.165 0-3.8-1.544-3.8-3.6 0-2.025 1.635-3.56 3.8-3.56 1.194 0 2.217.462 2.909 1.214l-1.354.802a2.25 2.25 0 0 0-1.534-.632c-1.173 0-2.246.963-2.246 2.196 0 1.224 1.093 2.217 2.246 2.217a2.22 2.22 0 0 0 1.745-.883v-.481H31.95V.61Zm5.144 2.727c.792-.21 1.674-1.033 1.985-1.384-.12 1.685-1.243 2.718-2.998 2.718-1.875 0-3.039-1.153-3.039-3.019v-4.081h1.575v4.081c0 .742.34 1.294.882 1.524.16.07.371.15.622.19.06.01.521.081.973-.04z" style="fill:#e2e4e2;fill-opacity:1;fill-rule:nonzero;stroke:none;stroke-width:.139266;stroke-linecap:butt;stroke-linejoin:miter;stroke-miterlimit:4;stroke-dasharray:none;stroke-dashoffset:0"/><path d="M41.927-2.448V.249c0 .552-.35.953-.832 1.314-.15.12-.421.27-.742.381.01-.1.02-.2.02-.31v-4.082Z" style="display:inline;fill:#00c565;fill-rule:nonzero;stroke:none;stroke-width:.139266;stroke-linecap:butt;stroke-linejoin:miter;stroke-miterlimit:4;stroke-dasharray:none;stroke-dashoffset:0"/><path d="M43.25 4.561v-7.02h1.575v7.02zm5.796-7.02c2.106 0 3.52 1.415 3.52 3.51 0 2.066-1.474 3.51-3.58 3.51H46.23v-7.02h2.827Zm.05 5.717c1.104 0 1.876-.903 1.876-2.196 0-1.304-.802-2.217-1.955-2.217h-1.224v4.403h1.294zm9.807.04V4.58H53.66v-7.02h5.134v1.284h-3.57v4.443ZM56.23 1.717V.45l2.223-.02v1.283Z" style="fill:#e2e4e2;fill-opacity:1;fill-rule:nonzero;stroke:none;stroke-width:.139266;stroke-linecap:butt;stroke-linejoin:miter;stroke-miterlimit:4;stroke-dasharray:none;stroke-dashoffset:0"/><path d="M2.786 4.58V3.07l1.893-.625 1.635-5.427V4.58zm7.58 0V3.07l-1.894-.625-1.634-5.427V4.58z" style="display:inline;fill:#00c565;fill-opacity:1;fill-rule:evenodd;stroke:#000;stroke-width:.0229096;stroke-linecap:round;stroke-linejoin:round;stroke-dasharray:none;stroke-opacity:1;paint-order:stroke fill markers"/><path d="M56.47-4.136a1 1 0 0 1-.05-.1.5.5 0 0 1-.037-.155.3.3 0 0 1 .034-.144c.022-.043.05-.082.073-.128a.7.7 0 0 0 .048-.15q.015-.079.026-.14a.2.2 0 0 1 .043-.102.3.3 0 0 1 .107-.076.6.6 0 0 1 .384-.05c.084.013.185.04.284.076s.196.078.291.118l.283.117c.095.038.192.077.328.122.135.045.308.096.472.149s.317.11.422.15a3 3 0 0 1 .472.226c.094.055.2.125.271.185.071.059.106.107.136.173a1.2 1.2 0 0 1 .095.438c0 .061-.01.113-.02.169-.01.055-.02.113-.036.165a.5.5 0 0 1-.063.13.2.2 0 0 1-.084.07.13.13 0 0 1-.095.006c-.03-.011-.053-.039-.07-.075-.016-.037-.025-.082-.035-.125a.3.3 0 0 0-.054-.121.6.6 0 0 0-.152-.126c-.07-.044-.16-.09-.324-.155a7 7 0 0 0-.669-.228c-.266-.077-.56-.145-.778-.2-.217-.054-.358-.096-.495-.136a8 8 0 0 0-.366-.099 1 1 0 0 0-.188-.027.2.2 0 0 0-.084.011.3.3 0 0 0-.068.031c-.018.012-.027.024-.04.027a.1.1 0 0 1-.041-.005c-.01-.003-.01-.003-.02-.02" style="display:inline;fill:#f7f7f7;fill-opacity:1;fill-rule:evenodd;stroke:#000;stroke-width:.064252;stroke-linecap:round;stroke-linejoin:round;paint-order:stroke fill markers" transform="matrix(1.43136 -.29153 .30284 1.36927 -25.982 19.931)"/><path d="M58.811-1.37c.022-.035.067-.104.13-.16a.7.7 0 0 1 .21-.128.3.3 0 0 1 .203-.015c.08.02.185.065.261.138a.54.54 0 0 1 .143.517.42.42 0 0 1-.119.208.7.7 0 0 1-.238.142.35.35 0 0 1-.238.007.596.596 0 0 1-.389-.386.38.38 0 0 1 .008-.27c.007-.019.007-.019.03-.053" style="fill:#f7f7f7;fill-opacity:1;fill-rule:evenodd;stroke:#000;stroke-width:.064252;stroke-linecap:round;stroke-linejoin:round;paint-order:stroke fill markers" transform="matrix(1.43136 -.29153 -.30284 -1.36927 -24.796 16.573)"/><path d="M171.03 132.441c-1.3-5.588-4.985-39.598-5.661-52.24-1.057-19.787-6.69-42.542-29.15-117.766-11.498-38.51-12.453-40.796-26.28-62.866-4.566-7.289-8.302-13.579-8.302-13.977 0-1.718-3.667-2.73-5.013-1.384-2.09 2.088-.714 6.54 4.53 14.67l8.752 13.561c2.22 3.44 5.603 10.09 7.519 14.78 3.98 9.742 13.266 39.942 12.85 41.791-.19.85-3.121-.68-9.44-4.923C102.99-47.899 83.3-56.32 42.729-69.323c-31.587-10.123-30.525-9.732-52.8-19.492-21.45-9.399-32.666-13.09-42.187-13.96-3.908-.358-7.121-1.062-7.292-1.579-.838-2.529 25.2-39.323 36.002-48.455 32.44-27.426 57.877-33.893 88.527-30.25 46.914 5.578 47.968 31.31 80.167 50.061 20.687 18.495 24.127 31.42 30.239 63.692 5.108 26.97 5.67 33.384 5.67 64.593 0 20.168.402 31.937 1.39 40.756 1.938 17.275 1.325 27.585-2.581 43.433-4.163 16.892-4.877 22.402-4.912 37.91-.031 14.102-.42 17.02-2.272 17.02-.655 0-1.396-.885-1.648-1.965" style="display:inline;fill:#d9132a" transform="matrix(.02203 -.00449 .00466 .02107 55.815 -1.974)"/><path d="M161.944 209.035c-33.554-7.597-36.353-56.54-4.07-71.178 3.078-1.396 5.806-2.877 6.062-3.29.255-.414-.695-9.75-2.113-20.748-1.417-10.998-2.835-25.887-3.15-33.087-.512-11.667-1.06-15.076-5.033-31.348-4.51-18.476-5.923-21.616-7.014-15.599-2.155 11.881-10.511 21.202-19.007 21.202-6.651 0-9.451-3.415-11.692-14.262-2.512-12.164-6.737-15.652-30.878-25.497C61.015 5.428 46.076.891-2.655-11.405c-24.48-6.176-49.81-12.647-56.29-14.378-16.4-4.382-20.97-4.412-26.751-.176-7.148 5.24-10.787 4.228-14.923-4.145-6.164-12.48-6.227-21.902-.196-29.644 6.737-8.649 7.03-9.353 7.902-18.984 1.29-14.254 3.533-17.328 15.449-21.17 6.555-2.116 8.472-4.049 19.744-19.91 18.618-26.2 28.075-36.45 44.215-47.925 23.236-16.518 44.03-23.117 70.195-22.277 28.844.926 50 10.92 67.52 31.896 8.687 10.4 17.99 19.617 25.862 25.622 18.437 14.062 25.476 28.068 32.35 64.37 4.833 25.514 5.614 34.676 5.614 65.865 0 19.464.42 31.821 1.396 41.024 1.787 16.848 1.23 24.257-3.19 42.406-3.298 13.547-3.555 15.56-4.335 34.023-.942 22.286-1.235 21.171 6.285 23.924 24.913 9.12 28.154 48.644 5.247 63.998-9.251 6.2-20.73 8.36-31.495 5.921m22.634-7.698c11.69-5.568 17.563-14.39 18.12-27.223 1.3-30.032-34.733-44.417-54.633-21.81-21.745 24.705 6.88 63.146 36.513 49.033m-10.183-68.896c.29-1.08.54-7.854.555-15.054.035-15.51.749-21.02 4.912-37.91 3.906-15.849 4.519-26.159 2.582-43.434-.99-8.819-1.39-20.588-1.39-40.756 0-31.21-.563-37.622-5.67-64.593-6.112-32.272-11.11-41.74-31.798-60.236-6.094-5.449-16.357-15.49-22.806-22.317-22.76-24.088-39.5-31.853-68.453-31.75-28.258.1-53.134 11.105-77.435 34.256-10.24 9.756-35.282 42.47-34.444 45 .17.516 3.509 1.232 7.417 1.59 9.52.871 20.613 4.55 42.062 13.948 22.275 9.76 21.213 9.37 52.8 19.491 40.57 13.003 60.262 21.425 78.109 33.41 6.317 4.243 9.25 5.773 9.44 4.924.414-1.85-8.873-32.05-12.852-41.792-1.916-4.69-5.3-11.34-7.52-14.779l-8.751-13.562c-5.244-8.13-6.62-12.58-4.53-14.67 1.346-1.346 5.013-.333 5.013 1.385 0 .398 3.736 6.688 8.302 13.977 13.827 22.07 14.782 24.355 26.28 62.866 22.46 75.224 28.093 97.98 29.15 117.766.676 12.642 4.362 46.652 5.662 52.24.252 1.08.993 1.964 1.648 1.964s1.428-.884 1.717-1.964m-40.892-86.4c5.442-5.442 7.455-12.489 8.04-28.145.453-12.087.424-12.33-2.66-22.69-3.056-10.275-3.211-10.562-8.181-15.14-17.385-16.014-42.885-28.152-91.018-43.326-29.32-9.244-41.724-13.896-63.218-23.714-21.803-9.958-37.463-12.065-51.994-6.993-8.172 2.852-10.47 5.241-10.48 10.893-.015 10.203-2.807 19.53-6.972 23.296-6.676 6.038-7.728 14.256-3.017 23.567 3.138 6.201 3.978 6.538 7.843 3.145 5.349-4.697 15.8-3.482 47.902 5.568 9.158 2.581 29.605 7.87 45.437 11.754C53.398-3.918 73.165 2.45 96.329 13.62c19.51 9.408 23.81 13.48 25.428 24.08 1.224 8.02 1.553 9.163 3.07 10.68 2.254 2.255 4.756 1.58 8.676-2.34" style="display:inline;fill:#211617" transform="matrix(.02203 -.00449 .00466 .02107 55.815 -1.974)"/></svg>