<svg xmlns="http://www.w3.org/2000/svg" xml:space="preserve" viewBox="0 0 518.5 107.3"><path d="M52 11c7.7 0 15.5 4.2 15.5 14.5 0 6-4.9 11.4-12.8 9.3 0 10.8 7.5 15.4 16.2 15.4a17.4 17.4 0 0 0 17-17.4C88 17.8 71.2 7 52 7 21 7 0 25.1 0 57s21.3 50.3 52 50.3A41 41 0 0 0 88.1 88L84.5 86A37 37 0 0 1 52 103c-16.6 0-26.5-16.4-26.5-46S35.2 11 52 11" style="opacity:1;fill:#fa704c;fill-rule:nonzero;stroke:none;stroke-width:1.933;stroke-linecap:butt;stroke-linejoin:miter;stroke-miterlimit:4;stroke-dasharray:none;stroke-dashoffset:0"/><path d="M120 43c0-4.5 4.9-8.2 12.4-8.2s11.2 2.7 11.2 11V66c-19.3-2.3-43 2.7-43 22.2 0 12 9 19 23 19h44l-.4-51.2c0-19.7-14.5-25.2-34.2-25.2-16 0-29.4 8.2-29.4 19.4 0 6 4.9 11.8 14.1 11.8 7.8 0 15.1-5.5 12.4-15.5-6.6 3.3-10 .2-10-3.5m5.8 43.5c0-11.8 7-16.6 17.7-16.6v25.5q-3.2 4.3-8.5 4.4c-5.8 0-9.2-6.5-9.2-13.3" style="fill:#fa704c;fill-rule:nonzero;stroke:none;stroke-width:1.933;stroke-linecap:butt;stroke-linejoin:miter;stroke-miterlimit:4;stroke-dasharray:none;stroke-dashoffset:0"/><path d="M194 31.9h-12.4l-.4 75.4h24V52.6c0-8.3 7-11.2 13-11.2q12 0 12.1 13.3V107H254V52.6c0-8.3 7-11.2 13-11.2q12 0 12.1 13.3V107h23.6V59.5c0-22.2-9.6-29-24.3-29-7 0-19.7 2-26 15.3-3.4-11.4-11.5-15.3-22.7-15.3-6.4 0-17.6 1.6-24.4 12.4A11 11 0 0 0 194 32M315.4 12.6c0 4.2 8 12.5 12.5 12.3s12.2-8 12-12.5S332-.2 328 0s-12.7 8.1-12.5 12.6m.5 94.7h23.8V43c0-6.4-4.8-11.4-11.2-11.4H316zM366 31.9h-12.4v75.4h23.6V52.6c0-8.3 7-11.2 13-11.2 7.8 0 12 13.3 12 13.3l.9 52.2h22.8V59.5c0-22.2-9.7-29-24.4-29-6.4 0-17.6 1.6-24.3 12.4a11 11 0 0 0-11.3-11M479 107c23.4 0 39.5-13.8 39.5-38.2 0-24.3-16-38.3-39.5-38.3-23.4 0-39.6 14-39.6 38.3 0 24.4 16 38.3 39.6 38.3m-15-38.3c0-21.8 5.6-34 15-34s15.1 12.2 15.1 34-5.6 34.2-15 34.2S464 91 464 68.8" style="opacity:1;fill:#fa704c;fill-rule:nonzero;stroke:none;stroke-width:1.933;stroke-linecap:butt;stroke-linejoin:miter;stroke-miterlimit:4;stroke-dasharray:none;stroke-dashoffset:0"/></svg>